<svg xmlns="http://www.w3.org/2000/svg" xmlns:xlink="http://www.w3.org/1999/xlink" width="1920" zoomAndPan="magnify" viewBox="0 0 1440 809.999993" height="1080" preserveAspectRatio="xMidYMid meet" version="1.0"><defs><g/></defs><g fill="#ffffff" fill-opacity="1"><g transform="translate(0.00000622222, 547.561128)"><g><path d="M 455.625 0 L 408.140625 0 L 359.78125 -71.5625 L 102.25 -71.5625 L 54.109375 0 L 6.625 0 L 220.640625 -316.703125 L 241.390625 -316.703125 Z M 333.265625 -110.875 L 231.015625 -261.9375 L 128.984375 -110.875 Z M 333.265625 -110.875 "/></g></g><g transform="translate(462.256125, 547.561128)"><g><path d="M 485 0 L 445.6875 0 L 445.6875 -236.3125 L 274.75 0 L 254.421875 0 L 83.484375 -236.3125 L 83.484375 0 L 44.171875 0 L 44.171875 -316.703125 L 73.765625 -316.703125 L 264.578125 -53 L 455.1875 -316.703125 L 485 -316.703125 Z M 485 0 "/></g></g><g transform="translate(991.432264, 547.561128)"><g><path d="M 341 0 L 105.125 0 C 85.25 0 68.28125 -7.03125 54.21875 -21.09375 C 40.15625 -35.15625 33.125 -52.125 33.125 -72 L 72.4375 -72 C 72.4375 -63.019531 75.640625 -55.328125 82.046875 -48.921875 C 88.453125 -42.515625 96.144531 -39.3125 105.125 -39.3125 L 341 -39.3125 C 349.976562 -39.3125 357.671875 -42.515625 364.078125 -48.921875 C 370.484375 -55.328125 373.6875 -63.019531 373.6875 -72 L 373.6875 -106.015625 C 373.6875 -114.992188 370.484375 -122.6875 364.078125 -129.09375 C 357.671875 -135.5 349.976562 -138.703125 341 -138.703125 L 105.125 -138.703125 C 85.25 -138.703125 68.28125 -145.726562 54.21875 -159.78125 C 40.15625 -173.84375 33.125 -190.816406 33.125 -210.703125 L 33.125 -244.703125 C 33.125 -264.585938 40.15625 -281.554688 54.21875 -295.609375 C 68.28125 -309.671875 85.25 -316.703125 105.125 -316.703125 L 341 -316.703125 C 360.875 -316.703125 377.84375 -309.671875 391.90625 -295.609375 C 405.96875 -281.554688 413 -264.585938 413 -244.703125 L 373.6875 -244.703125 C 373.6875 -253.691406 370.484375 -261.382812 364.078125 -267.78125 C 357.671875 -274.1875 349.976562 -277.390625 341 -277.390625 L 105.125 -277.390625 C 96.144531 -277.390625 88.453125 -274.1875 82.046875 -267.78125 C 75.640625 -261.382812 72.4375 -253.691406 72.4375 -244.703125 L 72.4375 -210.703125 C 72.4375 -201.710938 75.640625 -194.015625 82.046875 -187.609375 C 88.453125 -181.210938 96.144531 -178.015625 105.125 -178.015625 L 341 -178.015625 C 360.875 -178.015625 377.84375 -170.984375 391.90625 -156.921875 C 405.96875 -142.859375 413 -125.890625 413 -106.015625 L 413 -72 C 413 -52.125 405.96875 -35.15625 391.90625 -21.09375 C 377.84375 -7.03125 360.875 0 341 0 Z M 341 0 "/></g></g></g></svg>