<svg xmlns="http://www.w3.org/2000/svg" xmlns:xlink="http://www.w3.org/1999/xlink" width="1920" zoomAndPan="magnify" viewBox="0 0 1440 809.999993" height="1080" preserveAspectRatio="xMidYMid meet" version="1.0"><defs><g/><clipPath id="ed7901ac10"><path d="M 1170.769531 290.28125 L 1408 290.28125 L 1408 495.0625 L 1170.769531 495.0625 Z M 1170.769531 290.28125 " clip-rule="nonzero"/></clipPath><clipPath id="2847859dc5"><path d="M 1209.019531 290.28125 L 1369.355469 290.28125 C 1379.5 290.28125 1389.230469 294.3125 1396.402344 301.484375 C 1403.574219 308.65625 1407.605469 318.386719 1407.605469 328.53125 L 1407.605469 456.8125 C 1407.605469 466.957031 1403.574219 476.683594 1396.402344 483.859375 C 1389.230469 491.03125 1379.5 495.0625 1369.355469 495.0625 L 1209.019531 495.0625 C 1198.875 495.0625 1189.144531 491.03125 1181.972656 483.859375 C 1174.800781 476.683594 1170.769531 466.957031 1170.769531 456.8125 L 1170.769531 328.53125 C 1170.769531 318.386719 1174.800781 308.65625 1181.972656 301.484375 C 1189.144531 294.3125 1198.875 290.28125 1209.019531 290.28125 Z M 1209.019531 290.28125 " clip-rule="nonzero"/></clipPath></defs><g clip-path="url(#ed7901ac10)"><g clip-path="url(#2847859dc5)"><path fill="#4169e1" d="M 1170.769531 290.28125 L 1407.546875 290.28125 L 1407.546875 495.0625 L 1170.769531 495.0625 Z M 1170.769531 290.28125 " fill-opacity="1" fill-rule="nonzero"/></g></g><g fill="#4169e1" fill-opacity="1"><g transform="translate(20.21428, 516.880844)"><g><path d="M 357.6875 0 L 320.421875 0 L 282.4375 -56.171875 L 80.28125 -56.171875 L 42.484375 0 L 5.203125 0 L 173.21875 -248.640625 L 189.515625 -248.640625 Z M 261.640625 -87.046875 L 181.359375 -205.640625 L 101.25 -87.046875 Z M 261.640625 -87.046875 "/></g></g><g transform="translate(383.10569, 516.880844)"><g><path d="M 380.75 0 L 349.890625 0 L 349.890625 -185.515625 L 215.6875 0 L 199.734375 0 L 65.546875 -185.515625 L 65.546875 0 L 34.671875 0 L 34.671875 -248.640625 L 57.90625 -248.640625 L 207.71875 -41.609375 L 357.34375 -248.640625 L 380.75 -248.640625 Z M 380.75 0 "/></g></g><g transform="translate(798.532264, 516.880844)"><g><path d="M 267.703125 0 L 82.53125 0 C 66.925781 0 53.601562 -5.515625 42.5625 -16.546875 C 31.53125 -27.585938 26.015625 -40.914062 26.015625 -56.53125 L 56.875 -56.53125 C 56.875 -49.476562 59.382812 -43.4375 64.40625 -38.40625 C 69.4375 -33.375 75.476562 -30.859375 82.53125 -30.859375 L 267.703125 -30.859375 C 274.753906 -30.859375 280.796875 -33.375 285.828125 -38.40625 C 290.859375 -43.4375 293.375 -49.476562 293.375 -56.53125 L 293.375 -83.21875 C 293.375 -90.269531 290.859375 -96.3125 285.828125 -101.34375 C 280.796875 -106.375 274.753906 -108.890625 267.703125 -108.890625 L 82.53125 -108.890625 C 66.925781 -108.890625 53.601562 -114.40625 42.5625 -125.4375 C 31.53125 -136.476562 26.015625 -149.800781 26.015625 -165.40625 L 26.015625 -192.109375 C 26.015625 -207.710938 31.53125 -221.035156 42.5625 -232.078125 C 53.601562 -243.117188 66.925781 -248.640625 82.53125 -248.640625 L 267.703125 -248.640625 C 283.304688 -248.640625 296.628906 -243.117188 307.671875 -232.078125 C 318.710938 -221.035156 324.234375 -207.710938 324.234375 -192.109375 L 293.375 -192.109375 C 293.375 -199.160156 290.859375 -205.195312 285.828125 -210.21875 C 280.796875 -215.25 274.753906 -217.765625 267.703125 -217.765625 L 82.53125 -217.765625 C 75.476562 -217.765625 69.4375 -215.25 64.40625 -210.21875 C 59.382812 -205.195312 56.875 -199.160156 56.875 -192.109375 L 56.875 -165.40625 C 56.875 -158.351562 59.382812 -152.3125 64.40625 -147.28125 C 69.4375 -142.257812 75.476562 -139.75 82.53125 -139.75 L 267.703125 -139.75 C 283.304688 -139.75 296.628906 -134.226562 307.671875 -123.1875 C 318.710938 -112.144531 324.234375 -98.820312 324.234375 -83.21875 L 324.234375 -56.53125 C 324.234375 -40.914062 318.710938 -27.585938 307.671875 -16.546875 C 296.628906 -5.515625 283.304688 0 267.703125 0 Z M 267.703125 0 "/></g></g></g><g fill="#ffffff" fill-opacity="1"><g transform="translate(1229.036847, 375.720966)"><g><path d="M 32.140625 6.140625 L 26.9375 6.140625 L 26.9375 0 L 17.40625 0 C 13.8125 0 10.742188 -1.269531 8.203125 -3.8125 C 5.660156 -6.351562 4.390625 -9.421875 4.390625 -13.015625 L 4.390625 -28.921875 C 4.390625 -32.503906 5.660156 -35.566406 8.203125 -38.109375 C 10.742188 -40.660156 13.8125 -41.9375 17.40625 -41.9375 L 41.671875 -41.9375 C 45.253906 -41.9375 48.316406 -40.660156 50.859375 -38.109375 C 53.410156 -35.566406 54.6875 -32.503906 54.6875 -28.921875 L 54.6875 -13.015625 C 54.6875 -9.421875 53.410156 -6.351562 50.859375 -3.8125 C 48.316406 -1.269531 45.253906 0 41.671875 0 L 32.140625 0 Z M 41.671875 -5.203125 C 43.835938 -5.203125 45.679688 -5.960938 47.203125 -7.484375 C 48.722656 -9.003906 49.484375 -10.847656 49.484375 -13.015625 L 49.484375 -28.921875 C 49.484375 -31.085938 48.722656 -32.929688 47.203125 -34.453125 C 45.679688 -35.972656 43.835938 -36.734375 41.671875 -36.734375 L 17.40625 -36.734375 C 15.257812 -36.734375 13.421875 -35.972656 11.890625 -34.453125 C 10.359375 -32.929688 9.59375 -31.085938 9.59375 -28.921875 L 9.59375 -13.015625 C 9.59375 -10.847656 10.359375 -9.003906 11.890625 -7.484375 C 13.421875 -5.960938 15.257812 -5.203125 17.40625 -5.203125 L 26.9375 -5.203125 L 26.9375 -10.140625 L 32.140625 -10.140625 L 32.140625 -5.203125 Z M 41.671875 -5.203125 "/></g></g></g><g fill="#ffffff" fill-opacity="1"><g transform="translate(1288.107095, 375.720966)"><g><path d="M 60.328125 0 L 54.046875 0 L 47.640625 -9.46875 L 13.546875 -9.46875 L 7.171875 0 L 0.875 0 L 29.21875 -41.9375 L 31.96875 -41.9375 Z M 44.125 -14.6875 L 30.59375 -34.6875 L 17.078125 -14.6875 Z M 44.125 -14.6875 "/></g></g></g><g fill="#ffffff" fill-opacity="1"><g transform="translate(1250.124959, 446.899068)"><g><path d="M 60.328125 0 L 54.046875 0 L 47.640625 -9.46875 L 13.546875 -9.46875 L 7.171875 0 L 0.875 0 L 29.21875 -41.9375 L 31.96875 -41.9375 Z M 44.125 -14.6875 L 30.59375 -34.6875 L 17.078125 -14.6875 Z M 44.125 -14.6875 "/></g></g></g><g fill="#ffffff" fill-opacity="1"><g transform="translate(1311.329924, 446.899068)"><g><path d="M 11.046875 0 L 11.046875 -41.9375 L 5.84375 -41.9375 L 5.84375 0 Z M 11.046875 0 "/></g></g></g></svg>