<svg xmlns="http://www.w3.org/2000/svg" xmlns:xlink="http://www.w3.org/1999/xlink" width="1920" zoomAndPan="magnify" viewBox="0 0 1440 525.000007" height="700" preserveAspectRatio="xMidYMid meet" version="1.0"><defs><g/><clipPath id="73b139dfe2"><path d="M 1142.007812 148.550781 L 1374 148.550781 L 1374 362.039062 L 1142.007812 362.039062 Z M 1142.007812 148.550781 " clip-rule="nonzero"/></clipPath><clipPath id="a4c4d6c859"><path d="M 1172.785156 148.550781 L 1343.324219 148.550781 C 1351.488281 148.550781 1359.316406 151.792969 1365.085938 157.566406 C 1370.859375 163.339844 1374.101562 171.167969 1374.101562 179.332031 L 1374.101562 331.261719 C 1374.101562 339.425781 1370.859375 347.253906 1365.085938 353.023438 C 1359.316406 358.796875 1351.488281 362.039062 1343.324219 362.039062 L 1172.785156 362.039062 C 1164.621094 362.039062 1156.792969 358.796875 1151.023438 353.023438 C 1145.25 347.253906 1142.007812 339.425781 1142.007812 331.261719 L 1142.007812 179.332031 C 1142.007812 171.167969 1145.25 163.339844 1151.023438 157.566406 C 1156.792969 151.792969 1164.621094 148.550781 1172.785156 148.550781 Z M 1172.785156 148.550781 " clip-rule="nonzero"/></clipPath></defs><g clip-path="url(#73b139dfe2)"><g clip-path="url(#a4c4d6c859)"><path fill="#4169e1" d="M 1142.007812 148.550781 L 1373.839844 148.550781 L 1373.839844 362.039062 L 1142.007812 362.039062 Z M 1142.007812 148.550781 " fill-opacity="1" fill-rule="nonzero"/></g></g><g fill="#4169e1" fill-opacity="1"><g transform="translate(7.999711, 372.114392)"><g><path d="M 352.046875 0 L 315.359375 0 L 277.984375 -55.296875 L 79.015625 -55.296875 L 41.8125 0 L 5.125 0 L 170.46875 -244.703125 L 186.515625 -244.703125 Z M 257.5 -85.671875 L 178.5 -202.390625 L 99.65625 -85.671875 Z M 257.5 -85.671875 "/></g></g><g transform="translate(365.15837, 372.114392)"><g><path d="M 374.734375 0 L 344.359375 0 L 344.359375 -182.59375 L 212.28125 0 L 196.578125 0 L 64.5 -182.59375 L 64.5 0 L 34.125 0 L 34.125 -244.703125 L 57 -244.703125 L 204.4375 -40.953125 L 351.703125 -244.703125 L 374.734375 -244.703125 Z M 374.734375 0 "/></g></g><g transform="translate(774.022274, 372.114392)"><g><path d="M 263.484375 0 L 81.234375 0 C 65.867188 0 52.753906 -5.429688 41.890625 -16.296875 C 31.023438 -27.160156 25.59375 -40.269531 25.59375 -55.625 L 55.96875 -55.625 C 55.96875 -48.6875 58.441406 -42.742188 63.390625 -37.796875 C 68.335938 -32.847656 74.285156 -30.375 81.234375 -30.375 L 263.484375 -30.375 C 270.421875 -30.375 276.363281 -32.847656 281.3125 -37.796875 C 286.257812 -42.742188 288.734375 -48.6875 288.734375 -55.625 L 288.734375 -81.90625 C 288.734375 -88.84375 286.257812 -94.785156 281.3125 -99.734375 C 276.363281 -104.691406 270.421875 -107.171875 263.484375 -107.171875 L 81.234375 -107.171875 C 65.867188 -107.171875 52.753906 -112.601562 41.890625 -123.46875 C 31.023438 -134.332031 25.59375 -147.441406 25.59375 -162.796875 L 25.59375 -189.078125 C 25.59375 -204.429688 31.023438 -217.539062 41.890625 -228.40625 C 52.753906 -239.269531 65.867188 -244.703125 81.234375 -244.703125 L 263.484375 -244.703125 C 278.835938 -244.703125 291.945312 -239.269531 302.8125 -228.40625 C 313.675781 -217.539062 319.109375 -204.429688 319.109375 -189.078125 L 288.734375 -189.078125 C 288.734375 -196.015625 286.257812 -201.957031 281.3125 -206.90625 C 276.363281 -211.851562 270.421875 -214.328125 263.484375 -214.328125 L 81.234375 -214.328125 C 74.285156 -214.328125 68.335938 -211.851562 63.390625 -206.90625 C 58.441406 -201.957031 55.96875 -196.015625 55.96875 -189.078125 L 55.96875 -162.796875 C 55.96875 -155.859375 58.441406 -149.914062 63.390625 -144.96875 C 68.335938 -140.019531 74.285156 -137.546875 81.234375 -137.546875 L 263.484375 -137.546875 C 278.835938 -137.546875 291.945312 -132.113281 302.8125 -121.25 C 313.675781 -110.382812 319.109375 -97.269531 319.109375 -81.90625 L 319.109375 -55.625 C 319.109375 -40.269531 313.675781 -27.160156 302.8125 -16.296875 C 291.945312 -5.429688 278.835938 0 263.484375 0 Z M 263.484375 0 "/></g></g></g><g fill="#ffffff" fill-opacity="1"><g transform="translate(1195.073991, 230.908586)"><g><path d="M 34.28125 6.546875 L 28.71875 6.546875 L 28.71875 0 L 18.5625 0 C 14.726562 0 11.453125 -1.351562 8.734375 -4.0625 C 6.023438 -6.78125 4.671875 -10.050781 4.671875 -13.875 L 4.671875 -30.84375 C 4.671875 -34.664062 6.023438 -37.929688 8.734375 -40.640625 C 11.453125 -43.359375 14.726562 -44.71875 18.5625 -44.71875 L 44.4375 -44.71875 C 48.269531 -44.71875 51.539062 -43.359375 54.25 -40.640625 C 56.96875 -37.929688 58.328125 -34.664062 58.328125 -30.84375 L 58.328125 -13.875 C 58.328125 -10.050781 56.96875 -6.78125 54.25 -4.0625 C 51.539062 -1.351562 48.269531 0 44.4375 0 L 34.28125 0 Z M 44.4375 -5.546875 C 46.75 -5.546875 48.710938 -6.359375 50.328125 -7.984375 C 51.953125 -9.609375 52.765625 -11.570312 52.765625 -13.875 L 52.765625 -30.84375 C 52.765625 -33.15625 51.953125 -35.117188 50.328125 -36.734375 C 48.710938 -38.359375 46.75 -39.171875 44.4375 -39.171875 L 18.5625 -39.171875 C 16.269531 -39.171875 14.304688 -38.359375 12.671875 -36.734375 C 11.046875 -35.117188 10.234375 -33.15625 10.234375 -30.84375 L 10.234375 -13.875 C 10.234375 -11.570312 11.046875 -9.609375 12.671875 -7.984375 C 14.304688 -6.359375 16.269531 -5.546875 18.5625 -5.546875 L 28.71875 -5.546875 L 28.71875 -10.828125 L 34.28125 -10.828125 L 34.28125 -5.546875 Z M 44.4375 -5.546875 "/></g></g></g><g fill="#ffffff" fill-opacity="1"><g transform="translate(1258.075134, 230.908586)"><g><path d="M 64.34375 0 L 57.640625 0 L 50.8125 -10.109375 L 14.4375 -10.109375 L 7.640625 0 L 0.9375 0 L 31.15625 -44.71875 L 34.09375 -44.71875 Z M 47.0625 -15.65625 L 32.625 -36.984375 L 18.21875 -15.65625 Z M 47.0625 -15.65625 "/></g></g></g><g fill="#ffffff" fill-opacity="1"><g transform="translate(1217.554372, 324.831304)"><g><path d="M 64.34375 0 L 57.640625 0 L 50.8125 -10.109375 L 14.4375 -10.109375 L 7.640625 0 L 0.9375 0 L 31.15625 -44.71875 L 34.09375 -44.71875 Z M 47.0625 -15.65625 L 32.625 -36.984375 L 18.21875 -15.65625 Z M 47.0625 -15.65625 "/></g></g></g><g fill="#ffffff" fill-opacity="1"><g transform="translate(1282.832295, 324.831304)"><g><path d="M 11.796875 0 L 11.796875 -44.71875 L 6.234375 -44.71875 L 6.234375 0 Z M 11.796875 0 "/></g></g></g></svg>